<svg xmlns="http://www.w3.org/2000/svg" height="20" viewBox="0 -960 960 960" width="20"><path d="M480.288-146Q444-146 418.5-171.619 393-197.237 393-233.212q0-36.388 25.619-62.088 25.618-25.7 61.593-25.7Q517-321 542-295.212q25 25.787 25 62Q567-197 541.788-171.5q-25.213 25.5-61.5 25.5Zm0-247Q444-393 418.5-418.619 393-444.237 393-480.212 393-517 418.619-542q25.618-25 61.593-25Q517-567 542-541.788q25 25.213 25 61.5Q567-444 541.788-418.5q-25.213 25.5-61.5 25.5Zm0-246Q444-639 418.5-664.996q-25.5-25.995-25.5-62.5Q393-764 418.619-789q25.618-25 61.593-25Q517-814 542-788.788q25 25.213 25 61.717 0 36.505-25.212 62.288Q516.575-639 480.288-639Z"/></svg>