<svg xmlns="http://www.w3.org/2000/svg" height="20" viewBox="0 -960 960 960" width="20"><path d="m507-144-51-51 129.053-129.053L456-453.106 506.894-504l129.053 129.053L765-504l51 51-129.053 129.053L816-194.894 765.106-144 636.053-273.053 507-144Zm-213 0v-72h72v72h-72Zm-78-600h-72q0-29.7 21.15-50.85Q186.3-816 216-816v72Zm78 0v-72h72v72h-72Zm150 0v-72h72v72h-72Zm150 0v-72h72v72h-72Zm150 0v-72q29.7 0 50.85 21.15Q816-773.7 816-744h-72ZM216-216v72q-29.7 0-50.85-21.15Q144-186.3 144-216h72Zm-72-78v-72h72v72h-72Zm0-150v-72h72v72h-72Zm0-150v-72h72v72h-72Zm600 0v-72h72v72h-72Z"/></svg>